<svg width="48" height="48" viewBox="0 0 48 48" fill="none" xmlns="http://www.w3.org/2000/svg">
<path d="M18.4746 25.5884C21.236 25.5884 23.4746 23.3498 23.4746 20.5884C23.4746 17.827 21.236 15.5884 18.4746 15.5884C15.7132 15.5884 13.4746 17.827 13.4746 20.5884C13.4746 23.3498 15.7132 25.5884 18.4746 25.5884Z" stroke="#0053D0" stroke-width="2" stroke-linecap="round" stroke-linejoin="round"/>
<path d="M27.4746 17.5884H39.4746" stroke="#0053D0" stroke-width="2" stroke-linecap="round" stroke-linejoin="round"/>
<path d="M27.4746 23.5884H39.4746" stroke="#0053D0" stroke-width="2" stroke-linecap="round" stroke-linejoin="round"/>
<path d="M30.4746 29.5884H39.4746" stroke="#0053D0" stroke-width="2" stroke-linecap="round" stroke-linejoin="round"/>
<path d="M10.7266 31.5884C11.1704 29.871 12.1723 28.3498 13.5747 27.2638C14.9772 26.1777 16.7007 25.5884 18.4745 25.5884C20.2483 25.5884 21.9718 26.1777 23.3743 27.2638C24.7767 28.3498 25.7786 29.871 26.2225 31.5884" stroke="#0053D0" stroke-width="2" stroke-linecap="round" stroke-linejoin="round"/>
</svg>
