<svg width="48" height="48" viewBox="0 0 48 48" fill="none" xmlns="http://www.w3.org/2000/svg">
<g clip-path="url(#clip0_3006_49103)">
<mask id="mask0_3006_49103" style="mask-type:luminance" maskUnits="userSpaceOnUse" x="0" y="0" width="48" height="48">
<path d="M48 0H0V48H48V0Z" fill="white"/>
</mask>
<g mask="url(#mask0_3006_49103)">
<path d="M18.8313 24.7076C16.7405 24.7076 15.1143 26.3918 15.1143 28.4245C15.1143 30.5153 16.7405 32.1415 18.8313 32.1415C20.864 32.1415 22.5483 30.5153 22.5483 28.4245C22.5483 26.3918 20.864 24.7076 18.8313 24.7076ZM18.8313 30.283C17.7859 30.283 16.9728 29.4699 16.9728 28.4245C16.9728 27.4372 17.7859 26.5661 18.8313 26.5661C19.8186 26.5661 20.6898 27.4372 20.6898 28.4245C20.6898 29.4699 19.8186 30.283 18.8313 30.283ZM38.6938 11.1755L36.0803 8.56198C35.7319 8.21351 35.2673 7.9812 34.7446 7.9812C34.2799 7.9812 33.8153 8.21351 33.4669 8.56198L29.5176 12.5113C29.053 12.9759 28.8787 13.6728 29.053 14.2536L26.9622 16.4025C25.8006 15.7636 24.581 15.4732 23.3614 15.4732C21.8513 15.4732 20.3994 15.9959 19.2959 17.0413C18.7151 17.6802 18.3086 18.3771 18.0182 19.1902C17.6697 20.3518 16.5663 21.2229 15.3466 21.3391C13.8366 21.5133 12.4428 22.0941 11.3974 23.1395C8.49349 26.0434 9.01619 31.2123 12.5589 34.755C14.5336 36.7296 17.0309 37.775 19.354 37.775C21.1544 37.775 22.8387 37.1362 24.1164 35.9166C25.2198 34.8131 25.8006 33.4192 25.9168 31.9092C26.0329 30.7477 26.9041 29.6442 28.1237 29.2376C28.8787 29.0053 29.6337 28.5988 30.2145 27.9599C32.1311 26.0434 32.2472 23.0233 30.9114 20.3518L33.0022 18.2029C33.6411 18.3771 34.2799 18.261 34.8026 17.7383L38.6938 13.8471C39.1004 13.4405 39.2746 12.9759 39.2746 12.5113C39.2746 12.0467 39.0423 11.524 38.6938 11.1755ZM28.8787 26.6241C28.5303 27.0307 28.0656 27.3211 27.5429 27.4372C25.6264 28.0761 24.2325 29.7603 24.0583 31.735C23.9421 32.8384 23.5356 33.8258 22.7806 34.5808C21.6771 35.6262 20.3413 35.8585 19.354 35.8585C17.4374 35.8585 15.4047 34.9873 13.8366 33.4192C11.0489 30.6315 10.5262 26.6241 12.6751 24.4753C13.4301 23.7203 14.4174 23.3137 15.5209 23.1976C17.4374 23.0233 19.1798 21.6295 19.7605 19.7129C19.9348 19.1902 20.2252 18.7256 20.6317 18.3771C21.5029 17.506 22.6063 17.2736 23.3614 17.2736C24.1164 17.2736 24.8133 17.4479 25.5683 17.7383L21.619 21.6875C21.2706 22.036 21.2706 22.6168 21.619 23.0233L24.2325 25.6368C24.581 25.9853 25.2198 25.9853 25.5683 25.6368L29.5176 21.6875C29.6918 22.2683 29.866 22.791 29.9241 23.3718C30.0403 24.7076 29.6918 25.8691 28.8787 26.6241ZM37.4161 12.5113L33.4669 16.4606L32.4215 16.1702L24.9294 23.6622L23.5937 22.3264L31.0857 14.8344L30.7953 13.789L34.7446 9.83968L37.4161 12.5113Z" fill="#0053D0"/>
</g>
</g>
<defs>
<clipPath id="clip0_3006_49103">
<rect width="48" height="48" fill="white"/>
</clipPath>
</defs>
</svg>
