<svg width="25" height="25" viewBox="0 0 25 25" fill="none" xmlns="http://www.w3.org/2000/svg">
<path d="M16.8114 6.77783C14.8842 6.77783 14.0697 7.69748 12.7275 7.69748C11.3514 7.69748 10.3017 6.78452 8.63162 6.78452C6.9969 6.78452 5.25367 7.78256 4.14665 9.48277C2.59223 11.8804 2.85608 16.3959 5.37365 20.2428C6.27418 21.6199 7.4768 23.1642 9.05416 23.181H9.08284C10.4537 23.181 10.861 22.2833 12.7476 22.2728H12.7763C14.6347 22.2728 15.0075 23.1757 16.3727 23.1757H16.4013C17.9787 23.159 19.2458 21.4478 20.1464 20.076C20.7945 19.0894 21.0354 18.5942 21.5325 17.4781C17.8907 16.0957 17.3057 10.933 20.9073 8.95364C19.808 7.57703 18.2631 6.77974 16.8067 6.77974L16.8114 6.77783Z" fill="#E7E7E7"/>
<path d="M16.3869 1.76562C15.2397 1.84354 13.9014 2.5739 13.1175 3.52749C12.4062 4.3917 11.8212 5.67366 12.0506 6.91691H12.1424C13.3641 6.91691 14.6145 6.18129 15.3449 5.23869C16.0485 4.34151 16.5819 3.07006 16.3869 1.76562Z" fill="#E7E7E7"/>
</svg>
