<svg width="18" height="20" viewBox="0 0 18 20" fill="none" xmlns="http://www.w3.org/2000/svg">
<g clip-path="url(#clip0_3242_48518)">
<path d="M0.888407 1.45903C0.683284 1.66839 0.564575 1.99433 0.564575 2.41645V17.4731C0.564575 17.8952 0.683284 18.2212 0.888407 18.4305L0.939037 18.4764L9.5926 10.0427V9.84351L0.939037 1.40967L0.888407 1.45903Z" fill="#E7E7E7"/>
<path d="M13.5201 12.8557L10.6388 10.0431V9.84395L13.5236 7.03125L13.5882 7.06784L17.0046 8.96315C17.9796 9.50095 17.9796 10.386 17.0046 10.9273L13.5882 12.8192L13.5201 12.8557Z" fill="#E7E7E7"/>
<path d="M13.0639 13.3425L10.1145 10.4668L1.41028 18.9543C1.73411 19.2862 2.26219 19.3262 2.86272 18.9943L13.0639 13.3425Z" fill="#E7E7E7"/>
<path d="M13.0639 6.54423L2.86272 0.892464C2.26219 0.563963 1.73411 0.60396 1.41028 0.935865L10.1145 9.41992L13.0639 6.54423Z" fill="#E7E7E7"/>
</g>
<defs>
<clipPath id="clip0_3242_48518">
<rect width="17.59" height="19.8843" fill="white" transform="translate(0.144653 0.000976562)"/>
</clipPath>
</defs>
</svg>
