<svg width="165" height="321" viewBox="0 0 165 321" fill="none" xmlns="http://www.w3.org/2000/svg">
<path d="M134.232 282.661C136.873 276.957 142.826 262.809 143.566 243.354" stroke="#0E0014" stroke-width="1.75435" stroke-miterlimit="10" stroke-linecap="round"/>
<path d="M148.393 258.454C149.367 252.632 149.905 246.799 150.026 240.996" stroke="#0E0014" stroke-width="1.75435" stroke-miterlimit="10" stroke-linecap="round"/>
<path d="M118.676 320.092C127.828 309.94 135.416 298.065 140.9 284.692C142.969 279.647 144.675 274.544 146.031 269.411" stroke="#0E0014" stroke-width="1.75435" stroke-miterlimit="10" stroke-linecap="round"/>
<g opacity="0.3">
<path d="M132.145 107.934C132.146 107.834 132.097 107.741 132.014 107.686L98.5839 85.4329C94.2267 78.4728 89.1947 70.4613 83.4854 61.396C82.4638 59.7738 81.8287 58.7651 81.7048 58.5657C78.2405 53.0009 68.4758 42.1345 58.131 33.5814C51.9721 28.4891 41.5296 20.9145 34.4228 21.3823C33.6526 20.7724 32.0807 20.615 30.7357 21.2911L23.7809 10.1182C23.6961 9.98137 23.5154 9.94043 23.378 10.0246C23.2412 10.11 23.1991 10.2901 23.2844 10.4276L30.2375 21.5981C29.6475 22.0121 29.1615 22.5711 28.8592 23.2226C28.5475 23.8945 28.4913 24.5401 28.6779 25.0015C25.1826 31.2382 27.4563 44.1063 29.3603 51.9851C30.4398 56.4505 31.7813 60.965 33.2181 65.2041C33.1643 65.2948 33.1585 65.4105 33.2181 65.5064C33.2795 65.6047 33.3509 65.6971 33.4187 65.7912C36.1994 73.8969 39.3063 80.9254 41.5601 84.5458C41.6706 84.7236 42.2483 85.6616 43.1846 87.1808C48.7774 96.2572 53.72 104.261 58.0141 111.195L63.2151 150.508C63.228 150.606 63.2906 150.692 63.38 150.734C63.4204 150.753 63.4625 150.762 63.5052 150.762C63.559 150.762 63.6128 150.747 63.6601 150.718L77.485 142.114C79.3317 143.978 82.2621 144.896 85.7918 144.896C85.8608 144.896 85.9316 144.892 86.0006 144.892L86.0304 148.21L86.1017 156.24C86.1023 156.293 86.1175 156.347 86.1456 156.392C87.8198 159.079 91.1975 160.394 95.4296 160.394C100.625 160.394 107.108 158.413 113.308 154.555C118.73 151.179 123.138 146.889 125.721 142.475C128.336 138.003 128.772 133.927 126.947 130.995C126.918 130.949 126.878 130.912 126.83 130.888L119.443 127.181L116.777 125.674C118.414 122.385 118.821 119.361 117.964 116.916L132.007 108.177C132.091 108.125 132.143 108.033 132.145 107.934Z" fill="#6FB7F2"/>
</g>
<path d="M114.293 163.069C115.535 160.85 112.612 158.326 115.325 155.311C120.527 149.532 134.193 145.325 143.893 154.122C146.507 156.492 147.786 161.273 148.169 164.693C153.324 165.239 157.741 168.536 158.416 173.938C158.726 176.454 158.111 178.871 156.856 180.855C160.696 181.315 163.881 184.343 164.378 188.357C164.919 192.687 162.161 196.666 158.086 197.787C158.275 197.865 158.465 197.945 158.65 198.04C162.385 199.955 163.861 204.536 161.946 208.273C160.7 210.702 158.248 212.201 155.555 212.429C160.401 217.062 159.264 228.09 151.119 228.073C154.04 233.039 148.883 239.271 143.714 239.312C146.805 244.258 140.891 256.043 134.393 254.431C130.73 253.522 128.706 247.239 132.179 244.784C129.643 244.634 127.681 241.475 127.559 239.081C127.374 235.448 130.981 232.667 134.272 231.622C126.621 232.03 119.798 212.012 122.579 211.676C119.579 212.038 116.468 210.82 114.547 208.209C112.148 204.948 112.375 200.562 114.85 197.588C112.576 197.008 110.465 195.677 108.962 193.637C105.809 189.352 106.416 183.479 110.15 179.884C109.647 179.336 114.651 179.688 114.19 179.063C110.655 174.259 111.454 168.138 114.293 163.069Z" fill="white"/>
<path d="M114.293 163.069C115.535 160.85 112.612 158.326 115.325 155.311C120.527 149.532 134.193 145.325 143.893 154.122C146.507 156.492 147.786 161.273 148.169 164.693C153.324 165.239 157.741 168.536 158.416 173.938C158.726 176.454 158.111 178.871 156.856 180.855C160.696 181.315 163.881 184.343 164.378 188.357C164.919 192.687 162.161 196.666 158.086 197.787C158.275 197.865 158.465 197.945 158.65 198.04C162.385 199.955 163.861 204.536 161.946 208.273C160.7 210.702 158.248 212.201 155.555 212.429C160.401 217.062 159.264 228.09 151.119 228.073C154.04 233.039 148.883 239.271 143.714 239.312C146.805 244.258 140.891 256.043 134.393 254.431C130.73 253.522 128.706 247.239 132.179 244.784C129.643 244.634 127.681 241.475 127.559 239.081C127.374 235.448 130.981 232.667 134.272 231.622C126.621 232.03 119.798 212.012 122.579 211.676C119.579 212.038 116.468 210.82 114.547 208.209C112.148 204.948 112.375 200.562 114.85 197.588C112.576 197.008 110.465 195.677 108.962 193.637C105.809 189.352 106.416 183.479 110.15 179.884C109.647 179.336 114.651 179.688 114.19 179.063C110.655 174.259 111.454 168.138 114.293 163.069Z" stroke="black" stroke-width="0.584783" stroke-linecap="round" stroke-linejoin="round"/>
<path d="M122.57 130.028C123.56 131.346 124.524 132.744 125.434 134.211C133.667 147.436 128.705 165.395 128.705 165.395C128.705 165.395 110.401 161.917 102.171 148.693C101.256 147.225 100.429 145.746 99.6855 144.274L122.57 130.028Z" fill="#EBB84B"/>
<path d="M122.57 130.028C123.56 131.346 124.524 132.744 125.434 134.211C133.667 147.436 128.705 165.395 128.705 165.395C128.705 165.395 110.401 161.917 102.171 148.693C101.256 147.225 100.429 145.746 99.6855 144.274L122.57 130.028Z" stroke="#0E0014" stroke-width="0.584783" stroke-linecap="round" stroke-linejoin="round"/>
<path d="M117.27 133.326C117.803 134.034 118.318 134.783 118.812 135.573C123.233 142.675 120.567 152.318 120.567 152.318C120.567 152.318 110.734 150.449 106.317 143.349C105.825 142.559 105.38 141.766 104.98 140.975L117.27 133.326Z" fill="#EA6960"/>
<path d="M117.27 133.326C117.803 134.034 118.318 134.783 118.812 135.573C123.233 142.675 120.567 152.318 120.567 152.318C120.567 152.318 110.734 150.449 106.317 143.349C105.825 142.559 105.38 141.766 104.98 140.975L117.27 133.326Z" stroke="#0E0014" stroke-width="0.584783" stroke-miterlimit="10"/>
<path d="M109.046 182.238C106.947 179.386 107.352 175.476 109.837 173.083C109.502 172.718 109.186 172.335 108.879 171.92C106.527 168.721 107.058 164.648 108.947 161.274C109.775 159.797 110.862 158.453 112.084 157.376C115.966 153.953 125.841 150.079 132.298 155.935C134.037 157.512 134.889 160.695 135.144 162.971C138.576 163.334 141.515 165.529 141.964 169.124C142.171 170.8 141.762 172.409 140.927 173.73C143.483 174.037 145.603 176.051 145.934 178.724C146.293 181.606 144.458 184.253 141.745 184.999C141.871 185.052 141.998 185.106 142.121 185.169C144.607 186.444 145.59 189.493 144.315 191.979C143.444 193.678 141.745 194.674 139.964 194.728" fill="white"/>
<path d="M109.046 182.238C106.947 179.386 107.352 175.476 109.837 173.083C109.502 172.718 109.186 172.335 108.879 171.92C106.527 168.721 107.058 164.648 108.947 161.274C109.775 159.797 110.862 158.453 112.084 157.376C115.966 153.953 125.841 150.079 132.298 155.935C134.037 157.512 134.889 160.695 135.144 162.971C138.576 163.334 141.515 165.529 141.964 169.124C142.171 170.8 141.762 172.409 140.927 173.73C143.483 174.037 145.603 176.051 145.934 178.724C146.293 181.606 144.458 184.253 141.745 184.999C141.871 185.052 141.998 185.106 142.121 185.169C144.607 186.444 145.59 189.493 144.315 191.979C143.444 193.678 141.745 194.674 139.964 194.728" stroke="black" stroke-width="0.584783" stroke-linecap="round" stroke-linejoin="round"/>
<path d="M90.4805 134.542L90.591 147.018C94.2412 152.879 106.218 152.015 117.349 145.087C128.48 138.158 134.545 127.792 130.896 121.93L119.738 116.331" fill="#4777E1"/>
<path d="M90.4805 134.542L90.591 147.018C94.2412 152.879 106.218 152.015 117.349 145.087C128.48 138.158 134.545 127.792 130.896 121.93L119.738 116.331" stroke="#0E0014" stroke-width="0.584783" stroke-linecap="round" stroke-linejoin="round"/>
<path d="M90.4885 135.4L90.5189 138.906C91.8808 141.091 101.795 140.093 110.77 134.505C119.749 128.916 124.863 120.403 123.502 118.219L120.16 116.329" fill="#0E0014"/>
<path d="M90.4885 135.4L90.5189 138.906C91.8808 141.091 101.795 140.093 110.77 134.505C119.749 128.916 124.863 120.403 123.502 118.219L120.16 116.329" stroke="#0E0014" stroke-width="0.584783" stroke-miterlimit="10"/>
<path d="M81.7121 132.535C74.7497 121.905 46.8485 76.5222 46.0064 75.1708C38.9727 63.8693 24.1291 20.4574 35.4289 13.4207C46.731 6.38927 78.6209 38.2014 85.6547 49.4994C86.5687 50.9702 115.169 96.2639 121.802 107.575" fill="#F6925B"/>
<path d="M81.7121 132.535C74.7497 121.905 46.8485 76.5222 46.0064 75.1708C38.9727 63.8693 24.1291 20.4574 35.4289 13.4207C46.731 6.38927 78.6209 38.2014 85.6547 49.4994C86.5687 50.9702 115.169 96.2639 121.802 107.575" stroke="black" stroke-width="0.584783" stroke-linecap="round" stroke-linejoin="round"/>
<path d="M63.3164 81.7175C67.0478 87.7127 74.9354 89.5495 80.9335 85.8168C86.9269 82.083 88.7637 74.196 85.0299 68.1985C81.2978 62.2021 73.4115 60.3665 67.4163 64.0997C61.4193 67.8312 59.5831 75.7176 63.3164 81.7175Z" fill="#EBB84B"/>
<path d="M63.3164 81.7175C67.0478 87.7127 74.9354 89.5495 80.9335 85.8168C86.9269 82.083 88.7637 74.196 85.0299 68.1985C81.2978 62.2021 73.4115 60.3665 67.4163 64.0997C61.4193 67.8312 59.5831 75.7176 63.3164 81.7175Z" stroke="#0E0014" stroke-width="0.584783" stroke-linecap="round" stroke-linejoin="round"/>
<path d="M64.4408 81.0191C67.7864 86.395 74.8605 88.0429 80.2387 84.6956C85.614 81.3477 87.2596 74.2748 83.9123 68.8965C80.565 63.5189 73.4933 61.8727 68.1174 65.22C62.7403 68.5667 61.0929 75.6391 64.4408 81.0191Z" stroke="black" stroke-width="0.584783" stroke-linecap="round" stroke-linejoin="round" stroke-dasharray="1.17 28.07"/>
<path d="M65.649 80.2646C68.5793 84.972 74.771 86.4135 79.4809 83.4832C84.1889 80.5528 85.6316 74.3594 82.6983 69.6484C79.7686 64.9409 73.5746 63.4983 68.8682 66.4298C64.159 69.3625 62.7181 75.5541 65.649 80.2646Z" fill="#4777E1"/>
<path d="M65.649 80.2646C68.5793 84.9721 74.771 86.4135 79.4809 83.4832C84.1889 80.5528 85.6316 74.3594 82.6983 69.6484C79.7686 64.9409 73.5746 63.4983 68.8682 66.4298C64.159 69.3625 62.7181 75.5541 65.649 80.2646Z" stroke="#0E0014" stroke-width="0.584783" stroke-linecap="round" stroke-linejoin="round"/>
<path d="M80.9609 131.521C84.61 137.38 96.5805 136.515 107.705 129.59C118.833 122.665 124.896 112.303 121.248 106.443" fill="#F6925B"/>
<path d="M80.9609 131.521C84.61 137.38 96.5805 136.515 107.705 129.59C118.833 122.665 124.896 112.303 121.248 106.443" stroke="black" stroke-width="0.584783" stroke-linecap="round" stroke-linejoin="round"/>
<path d="M46.0048 75.1713C39.1529 64.1657 24.9012 22.7058 34.6004 14.0498C34.6004 14.0498 39.0687 37.9341 47.6732 59.1605C53.3736 73.2239 85.1735 124.975 87.6179 128.921C91.6786 135.483 101.916 133.03 95.6522 134.709C84.7782 137.627 81.7104 132.535 81.7104 132.535C74.7486 121.906 46.8469 76.5227 46.0048 75.1713Z" fill="#E97541"/>
<path d="M106.169 82.1772C106.09 82.5521 105.995 82.9304 105.887 83.3117" stroke="black" stroke-width="0.584783" stroke-linecap="round" stroke-linejoin="round"/>
<path d="M105.111 85.5029C104.722 86.4269 104.251 87.3637 103.698 88.3093C100.858 93.1647 96.0682 97.8459 90.2116 101.49C84.3579 105.135 78.044 107.366 72.4348 107.771C71.8144 107.815 71.2074 107.838 70.6156 107.838C69.8185 107.838 69.0489 107.798 68.3086 107.718" stroke="black" stroke-width="0.584783" stroke-linecap="round" stroke-linejoin="round" stroke-dasharray="2.33 2.33"/>
<path d="M67.1587 107.558C66.7675 107.491 66.3856 107.412 66.0137 107.322" stroke="black" stroke-width="0.584783" stroke-linecap="round" stroke-linejoin="round"/>
<path d="M61.6133 100.441C65.2606 106.302 77.2328 105.438 88.3565 98.5108C99.4844 91.5864 105.546 81.2229 101.898 75.3657" stroke="black" stroke-width="0.584783" stroke-linecap="round" stroke-linejoin="round"/>
<path d="M80.9609 131.521C84.61 137.38 96.5805 136.515 107.705 129.59C118.833 122.665 124.896 112.303 121.248 106.443" stroke="black" stroke-width="0.584783" stroke-linecap="round" stroke-linejoin="round"/>
<path d="M75.1732 36.6328C75.1445 37.0147 75.096 37.4018 75.0293 37.793" stroke="black" stroke-width="0.584783" stroke-linecap="round" stroke-linejoin="round"/>
<path d="M74.4429 40.0796C74.0464 41.2404 73.4955 42.4287 72.792 43.6304C70.3611 47.7864 66.2723 51.7869 61.2777 54.895C56.2836 58.0038 50.8878 59.9066 46.0862 60.2528C45.5511 60.2914 45.0277 60.3107 44.5166 60.3107C43.3301 60.3107 42.2114 60.2072 41.1699 60.0043" stroke="black" stroke-width="0.584783" stroke-linecap="round" stroke-linejoin="round" stroke-dasharray="2.36 2.36"/>
<path d="M40.0162 59.7297C39.6343 59.6216 39.2636 59.4988 38.9062 59.3613" stroke="black" stroke-width="0.584783" stroke-linecap="round" stroke-linejoin="round"/>
<path d="M36.9569 53.5376C40.0188 58.4574 50.0759 57.7334 59.4213 51.916C68.7667 46.1003 73.859 37.3947 70.7959 32.4731" stroke="black" stroke-width="0.584783" stroke-linecap="round" stroke-linejoin="round"/>
<path d="M81.7121 132.535C74.7497 121.905 46.8485 76.5222 46.0064 75.1708C38.9727 63.8693 24.1291 20.4574 35.4289 13.4207C46.731 6.38927 78.6209 38.2014 85.6547 49.4994C86.5687 50.9702 115.169 96.2639 121.802 107.575" stroke="black" stroke-width="0.584783" stroke-linecap="round" stroke-linejoin="round"/>
<path d="M121.934 107.494L136.05 98.7097L102.611 76.4512L121.934 107.494Z" fill="#4777E1"/>
<path d="M121.934 107.494L136.05 98.7097L102.611 76.4512L121.934 107.494Z" stroke="#0E0014" stroke-width="0.584783" stroke-linecap="round" stroke-linejoin="round"/>
<path d="M81.5982 132.601L67.7014 141.25L62.498 101.916L81.5982 132.601Z" fill="#4777E1"/>
<path d="M81.5982 132.601L67.7014 141.25L62.498 101.916L81.5982 132.601Z" stroke="#0E0014" stroke-width="0.584783" stroke-linecap="round" stroke-linejoin="round"/>
<path d="M33.1792 15.7768C33.5985 16.5306 34.9189 15.9838 36.4481 15.1329C37.9756 14.2821 39.1334 13.4493 38.713 12.695C38.2931 11.9406 36.454 11.5506 34.9259 12.4014C33.3985 13.2523 32.7587 15.0224 33.1792 15.7768Z" fill="#EBB84B"/>
<path d="M33.1792 15.7768C33.5985 16.5306 34.9189 15.9838 36.4481 15.1329C37.9756 14.2821 39.1334 13.4493 38.713 12.695C38.2931 11.9406 36.454 11.5506 34.9259 12.4014C33.3985 13.2523 32.7587 15.0224 33.1792 15.7768Z" stroke="#0E0014" stroke-width="0.584783" stroke-linecap="round" stroke-linejoin="round"/>
<path d="M35.1549 12.9788L27.7305 1.05273L35.1549 12.9788Z" fill="white"/>
<path d="M35.1549 12.9788L27.7305 1.05273" stroke="black" stroke-width="0.584783" stroke-linecap="round" stroke-linejoin="round"/>
<path d="M11.0262 242.328C11.0262 237.598 5.50762 232.079 0.777344 232.079C5.50762 232.079 11.0262 226.561 11.0262 221.831C11.0262 226.561 16.5448 232.079 21.275 232.079C16.5448 232.079 11.0262 237.598 11.0262 242.328Z" fill="black"/>
<path d="M25.7989 221.228C25.7989 219.141 23.3645 216.707 21.2773 216.707C23.3645 216.707 25.7989 214.272 25.7989 212.185C25.7989 214.272 28.2334 216.707 30.3205 216.707C28.2334 216.707 25.7989 219.141 25.7989 221.228Z" fill="black"/>
</svg>
