<svg width="220" height="111" viewBox="0 0 220 111" fill="none" xmlns="http://www.w3.org/2000/svg">
<g filter="url(#filter0_bd_3006_48643)">
<rect x="32" y="25.7051" width="155.66" height="46.6981" rx="23.349" fill="white" fill-opacity="0.1" shape-rendering="crispEdges"/>
<rect x="31.6108" y="25.3159" width="156.439" height="47.4764" rx="23.7382" stroke="white" stroke-opacity="0.2" stroke-width="0.778301" shape-rendering="crispEdges"/>
</g>
<path d="M67.8114 43.7046C65.8842 43.7046 65.0697 44.6242 63.7275 44.6242C62.3514 44.6242 61.3017 43.7113 59.6316 43.7113C57.9969 43.7113 56.2537 44.7093 55.1466 46.4095C53.5922 48.8071 53.8561 53.3227 56.3736 57.1695C57.2742 58.5466 58.4768 60.091 60.0542 60.1077H60.0828C61.4537 60.1077 61.861 59.2101 63.7476 59.1996H63.7763C65.6347 59.1996 66.0075 60.1025 67.3727 60.1025H67.4013C68.9787 60.0858 70.2458 58.3746 71.1464 57.0027C71.7945 56.0162 72.0354 55.521 72.5325 54.4049C68.8907 53.0225 68.3057 47.8597 71.9073 45.8804C70.808 44.5038 69.2631 43.7065 67.8067 43.7065L67.8114 43.7046Z" fill="#E7E7E7"/>
<path d="M67.3869 38.6924C66.2397 38.7703 64.9014 39.5007 64.1175 40.4542C63.4062 41.3185 62.8212 42.6004 63.0506 43.8437H63.1424C64.3641 43.8437 65.6145 43.108 66.3449 42.1655C67.0485 41.2683 67.5819 39.9968 67.3869 38.6924Z" fill="#E7E7E7"/>
<path d="M87.6675 42.7969H84.2627L83.6095 44.5742H82.8172L85.5475 37.1864H86.3934L89.1129 44.5742H88.3206L87.6675 42.7969ZM87.4426 42.1759L85.9651 38.1286L84.4875 42.1759H87.4426ZM92.3929 43.8461L94.363 38.7282H95.1553L92.8105 44.5742H91.9647L89.6198 38.7282H90.4228L92.3929 43.8461ZM95.8285 41.6405C95.8285 41.0409 95.9463 40.5163 96.1819 40.0666C96.4245 39.6098 96.7565 39.26 97.1776 39.0173C97.6059 38.7675 98.0877 38.6426 98.623 38.6426C99.1798 38.6426 99.658 38.7711 100.058 39.028C100.465 39.285 100.757 39.6133 100.936 40.0131V38.7282H101.685V44.5742H100.936V43.2787C100.75 43.6784 100.454 44.0103 100.047 44.2744C99.6473 44.5314 99.1691 44.6599 98.6123 44.6599C98.0841 44.6599 97.6059 44.535 97.1776 44.2851C96.7565 44.0353 96.4245 43.682 96.1819 43.2251C95.9463 42.7683 95.8285 42.2401 95.8285 41.6405ZM100.936 41.6512C100.936 41.1801 100.839 40.7661 100.647 40.4092C100.454 40.0523 100.19 39.7775 99.8543 39.5848C99.526 39.3921 99.162 39.2957 98.7622 39.2957C98.3482 39.2957 97.9771 39.3885 97.6487 39.5741C97.3204 39.7597 97.0598 40.0309 96.8671 40.3878C96.6815 40.7376 96.5887 41.1551 96.5887 41.6405C96.5887 42.1188 96.6815 42.5399 96.8671 42.9039C97.0598 43.2608 97.3204 43.5356 97.6487 43.7284C97.9771 43.914 98.3482 44.0068 98.7622 44.0068C99.162 44.0068 99.526 43.9104 99.8543 43.7177C100.19 43.5249 100.454 43.2501 100.647 42.8932C100.839 42.5363 100.936 42.1223 100.936 41.6512ZM103.771 37.6254C103.621 37.6254 103.493 37.5719 103.386 37.4648C103.278 37.3577 103.225 37.2257 103.225 37.0686C103.225 36.9116 103.278 36.7831 103.386 36.6832C103.493 36.5761 103.621 36.5226 103.771 36.5226C103.921 36.5226 104.049 36.5761 104.156 36.6832C104.264 36.7831 104.317 36.9116 104.317 37.0686C104.317 37.2257 104.264 37.3577 104.156 37.4648C104.049 37.5719 103.921 37.6254 103.771 37.6254ZM104.146 38.7282V44.5742H103.396V38.7282H104.146ZM106.592 36.6511V44.5742H105.843V36.6511H106.592ZM107.947 41.6405C107.947 41.0409 108.065 40.5163 108.3 40.0666C108.543 39.6098 108.875 39.26 109.296 39.0173C109.724 38.7675 110.206 38.6426 110.742 38.6426C111.298 38.6426 111.777 38.7711 112.176 39.028C112.583 39.285 112.876 39.6133 113.054 40.0131V38.7282H113.804V44.5742H113.054V43.2787C112.869 43.6784 112.572 44.0103 112.166 44.2744C111.766 44.5314 111.288 44.6599 110.731 44.6599C110.203 44.6599 109.724 44.535 109.296 44.2851C108.875 44.0353 108.543 43.682 108.3 43.2251C108.065 42.7683 107.947 42.2401 107.947 41.6405ZM113.054 41.6512C113.054 41.1801 112.958 40.7661 112.765 40.4092C112.572 40.0523 112.308 39.7775 111.973 39.5848C111.645 39.3921 111.28 39.2957 110.881 39.2957C110.467 39.2957 110.096 39.3885 109.767 39.5741C109.439 39.7597 109.178 40.0309 108.986 40.3878C108.8 40.7376 108.707 41.1551 108.707 41.6405C108.707 42.1188 108.8 42.5399 108.986 42.9039C109.178 43.2608 109.439 43.5356 109.767 43.7284C110.096 43.914 110.467 44.0068 110.881 44.0068C111.28 44.0068 111.645 43.9104 111.973 43.7177C112.308 43.5249 112.572 43.2501 112.765 42.8932C112.958 42.5363 113.054 42.1223 113.054 41.6512ZM116.254 40.0238C116.446 39.6169 116.742 39.285 117.142 39.028C117.549 38.7711 118.027 38.6426 118.577 38.6426C119.112 38.6426 119.591 38.7675 120.012 39.0173C120.433 39.26 120.761 39.6098 120.997 40.0666C121.239 40.5163 121.361 41.0409 121.361 41.6405C121.361 42.2401 121.239 42.7683 120.997 43.2251C120.761 43.682 120.429 44.0353 120.001 44.2851C119.58 44.535 119.105 44.6599 118.577 44.6599C118.02 44.6599 117.538 44.535 117.132 44.2851C116.732 44.0282 116.439 43.6962 116.254 43.2894V44.5742H115.515V36.6511H116.254V40.0238ZM120.601 41.6405C120.601 41.1551 120.504 40.7376 120.311 40.3878C120.126 40.0309 119.869 39.7597 119.541 39.5741C119.212 39.3885 118.841 39.2957 118.427 39.2957C118.027 39.2957 117.66 39.3921 117.324 39.5848C116.996 39.7775 116.735 40.0523 116.543 40.4092C116.35 40.7661 116.254 41.1801 116.254 41.6512C116.254 42.1223 116.35 42.5363 116.543 42.8932C116.735 43.2501 116.996 43.5249 117.324 43.7177C117.66 43.9104 118.027 44.0068 118.427 44.0068C118.841 44.0068 119.212 43.914 119.541 43.7284C119.869 43.5356 120.126 43.2608 120.311 42.9039C120.504 42.5399 120.601 42.1188 120.601 41.6405ZM123.489 36.6511V44.5742H122.74V36.6511H123.489ZM130.476 41.3514C130.476 41.6084 130.469 41.8047 130.454 41.9403H125.604C125.626 42.3829 125.733 42.7612 125.925 43.0752C126.118 43.3893 126.371 43.6284 126.686 43.7926C127 43.9496 127.342 44.0282 127.713 44.0282C128.199 44.0282 128.606 43.9104 128.934 43.6748C129.269 43.4393 129.491 43.1216 129.598 42.7219H130.39C130.247 43.293 129.94 43.7605 129.469 44.1245C129.005 44.4814 128.42 44.6599 127.713 44.6599C127.164 44.6599 126.671 44.5385 126.236 44.2958C125.8 44.046 125.458 43.6962 125.208 43.2466C124.965 42.7897 124.844 42.2579 124.844 41.6512C124.844 41.0445 124.965 40.5127 125.208 40.0559C125.451 39.5991 125.79 39.2493 126.225 39.0066C126.661 38.7639 127.157 38.6426 127.713 38.6426C128.27 38.6426 128.756 38.7639 129.17 39.0066C129.591 39.2493 129.912 39.5776 130.133 39.9916C130.362 40.3985 130.476 40.8518 130.476 41.3514ZM129.716 41.33C129.723 40.8946 129.634 40.5234 129.448 40.2165C129.269 39.9096 129.023 39.6776 128.709 39.5205C128.395 39.3635 128.052 39.285 127.681 39.285C127.125 39.285 126.65 39.4634 126.257 39.8203C125.865 40.1772 125.647 40.6805 125.604 41.33H129.716ZM137.344 44.6599C136.795 44.6599 136.298 44.5385 135.856 44.2958C135.42 44.046 135.074 43.6962 134.817 43.2466C134.567 42.7897 134.443 42.2579 134.443 41.6512C134.443 41.0445 134.571 40.5163 134.828 40.0666C135.085 39.6098 135.435 39.26 135.877 39.0173C136.32 38.7675 136.816 38.6426 137.366 38.6426C137.915 38.6426 138.411 38.7675 138.854 39.0173C139.304 39.26 139.653 39.6098 139.903 40.0666C140.16 40.5163 140.289 41.0445 140.289 41.6512C140.289 42.2508 140.16 42.779 139.903 43.2358C139.646 43.6927 139.293 44.046 138.843 44.2958C138.393 44.5385 137.894 44.6599 137.344 44.6599ZM137.344 44.0068C137.73 44.0068 138.086 43.9211 138.415 43.7498C138.743 43.5713 139.007 43.3072 139.207 42.9575C139.414 42.6006 139.518 42.1652 139.518 41.6512C139.518 41.1373 139.418 40.7054 139.218 40.3557C139.018 39.9988 138.754 39.7347 138.426 39.5634C138.097 39.3849 137.74 39.2957 137.355 39.2957C136.969 39.2957 136.613 39.3849 136.284 39.5634C135.956 39.7347 135.692 39.9988 135.492 40.3557C135.299 40.7054 135.203 41.1373 135.203 41.6512C135.203 42.1652 135.299 42.6006 135.492 42.9575C135.692 43.3072 135.952 43.5713 136.273 43.7498C136.602 43.9211 136.959 44.0068 137.344 44.0068ZM144.396 38.6212C145.095 38.6212 145.666 38.8389 146.109 39.2743C146.551 39.7026 146.773 40.3271 146.773 41.148V44.5742H146.034V41.2336C146.034 40.5984 145.873 40.113 145.552 39.7775C145.238 39.442 144.806 39.2743 144.257 39.2743C143.693 39.2743 143.243 39.4527 142.907 39.8096C142.572 40.1665 142.404 40.6912 142.404 41.3835V44.5742H141.655V38.7282H142.404V39.724C142.59 39.3671 142.858 39.0958 143.207 38.9102C143.557 38.7175 143.953 38.6212 144.396 38.6212Z" fill="#E7E7E7"/>
<path d="M87.7925 59.2422H84.3907L83.8279 60.8696H82.0291L85.1005 52.3163H87.095L90.1664 60.8696H88.3554L87.7925 59.2422ZM87.3275 57.8717L86.0916 54.2986L84.8557 57.8717H87.3275ZM97.5428 54.9716C97.5428 55.4285 97.4327 55.8567 97.2124 56.2565C97.0003 56.6562 96.6618 56.9784 96.1968 57.2231C95.7399 57.4679 95.1608 57.5902 94.4592 57.5902H93.0275V60.8696H91.3144V52.3285H94.4592C95.12 52.3285 95.6828 52.4427 96.1478 52.6712C96.6128 52.8996 96.9595 53.2136 97.1879 53.6134C97.4245 54.0131 97.5428 54.4659 97.5428 54.9716ZM94.3858 56.2075C94.8589 56.2075 95.2097 56.1015 95.4381 55.8894C95.6665 55.6691 95.7807 55.3632 95.7807 54.9716C95.7807 54.1395 95.3157 53.7235 94.3858 53.7235H93.0275V56.2075H94.3858ZM104.987 54.9716C104.987 55.4285 104.877 55.8567 104.657 56.2565C104.445 56.6562 104.106 56.9784 103.641 57.2231C103.185 57.4679 102.605 57.5902 101.904 57.5902H100.472V60.8696H98.7591V52.3285H101.904C102.565 52.3285 103.128 52.4427 103.593 52.6712C104.057 52.8996 104.404 53.2136 104.633 53.6134C104.869 54.0131 104.987 54.4659 104.987 54.9716ZM101.83 56.2075C102.304 56.2075 102.654 56.1015 102.883 55.8894C103.111 55.6691 103.225 55.3632 103.225 54.9716C103.225 54.1395 102.76 53.7235 101.83 53.7235H100.472V56.2075H101.83ZM112.068 60.9553C111.473 60.9553 110.935 60.8533 110.453 60.6494C109.98 60.4454 109.605 60.1518 109.328 59.7683C109.05 59.3849 108.907 58.9322 108.899 58.4101H110.735C110.759 58.7609 110.882 59.0382 111.102 59.2422C111.33 59.4461 111.64 59.5481 112.032 59.5481C112.432 59.5481 112.746 59.4543 112.974 59.2666C113.202 59.0709 113.317 58.818 113.317 58.508C113.317 58.2551 113.239 58.0471 113.084 57.8839C112.929 57.7208 112.733 57.5943 112.497 57.5046C112.268 57.4067 111.95 57.3006 111.542 57.1864C110.988 57.0233 110.535 56.8642 110.184 56.7092C109.841 56.5461 109.544 56.3054 109.291 55.9873C109.046 55.661 108.924 55.2286 108.924 54.6902C108.924 54.1844 109.05 53.7439 109.303 53.3686C109.556 52.9934 109.911 52.7079 110.368 52.5121C110.824 52.3081 111.347 52.2062 111.934 52.2062C112.815 52.2062 113.529 52.4224 114.075 52.8547C114.63 53.2789 114.936 53.8744 114.993 54.6412H113.109C113.092 54.3476 112.966 54.1069 112.729 53.9193C112.501 53.7235 112.195 53.6256 111.812 53.6256C111.477 53.6256 111.208 53.7113 111.004 53.8826C110.808 54.0539 110.71 54.3027 110.71 54.629C110.71 54.8574 110.784 55.0491 110.93 55.2041C111.085 55.351 111.273 55.4733 111.493 55.5712C111.722 55.661 112.04 55.767 112.448 55.8894C113.003 56.0525 113.455 56.2157 113.806 56.3788C114.157 56.542 114.459 56.7867 114.712 57.113C114.964 57.4393 115.091 57.8676 115.091 58.3979C115.091 58.8547 114.973 59.2789 114.736 59.6705C114.499 60.062 114.153 60.3761 113.696 60.6127C113.239 60.8411 112.697 60.9553 112.068 60.9553ZM122.388 52.3285V53.7113H120.112V60.8696H118.399V53.7113H116.123V52.3285H122.388ZM127.603 60.9553C126.804 60.9553 126.069 60.7677 125.4 60.3924C124.732 60.0172 124.201 59.4991 123.81 58.8384C123.418 58.1694 123.222 57.4149 123.222 56.5746C123.222 55.7425 123.418 54.9961 123.81 54.3353C124.201 53.6664 124.732 53.1443 125.4 52.7691C126.069 52.3938 126.804 52.2062 127.603 52.2062C128.411 52.2062 129.145 52.3938 129.806 52.7691C130.475 53.1443 131.001 53.6664 131.384 54.3353C131.776 54.9961 131.971 55.7425 131.971 56.5746C131.971 57.4149 131.776 58.1694 131.384 58.8384C131.001 59.4991 130.475 60.0172 129.806 60.3924C129.137 60.7677 128.402 60.9553 127.603 60.9553ZM127.603 59.4257C128.117 59.4257 128.57 59.3115 128.961 59.0831C129.353 58.8465 129.659 58.5121 129.879 58.0797C130.099 57.6473 130.209 57.1456 130.209 56.5746C130.209 56.0036 130.099 55.506 129.879 55.0818C129.659 54.6494 129.353 54.319 128.961 54.0906C128.57 53.8622 128.117 53.748 127.603 53.748C127.089 53.748 126.632 53.8622 126.233 54.0906C125.841 54.319 125.535 54.6494 125.315 55.0818C125.095 55.506 124.984 56.0036 124.984 56.5746C124.984 57.1456 125.095 57.6473 125.315 58.0797C125.535 58.5121 125.841 58.8465 126.233 59.0831C126.632 59.3115 127.089 59.4257 127.603 59.4257ZM137.651 60.8696L135.767 57.5413H134.959V60.8696H133.246V52.3285H136.452C137.113 52.3285 137.676 52.4468 138.141 52.6834C138.606 52.9118 138.952 53.2259 139.181 53.6256C139.417 54.0172 139.536 54.4577 139.536 54.9472C139.536 55.51 139.372 56.0199 139.046 56.4767C138.72 56.9254 138.234 57.2354 137.59 57.4067L139.633 60.8696H137.651ZM134.959 56.2565H136.391C136.856 56.2565 137.202 56.1463 137.431 55.9261C137.659 55.6977 137.773 55.3836 137.773 54.9839C137.773 54.5923 137.659 54.2905 137.431 54.0784C137.202 53.8581 136.856 53.748 136.391 53.748H134.959V56.2565ZM142.798 53.7113V55.8527H145.674V57.2109H142.798V59.4747H146.041V60.8696H141.085V52.3163H146.041V53.7113H142.798Z" fill="#E7E7E7"/>
<defs>
<filter id="filter0_bd_3006_48643" x="0.0896301" y="0.0211182" width="219.481" height="110.519" filterUnits="userSpaceOnUse" color-interpolation-filters="sRGB">
<feFlood flood-opacity="0" result="BackgroundImageFix"/>
<feGaussianBlur in="BackgroundImageFix" stdDeviation="6.53565"/>
<feComposite in2="SourceAlpha" operator="in" result="effect1_backgroundBlur_3006_48643"/>
<feColorMatrix in="SourceAlpha" type="matrix" values="0 0 0 0 0 0 0 0 0 0 0 0 0 0 0 0 0 0 127 0" result="hardAlpha"/>
<feOffset dy="6.22641"/>
<feGaussianBlur stdDeviation="15.566"/>
<feComposite in2="hardAlpha" operator="out"/>
<feColorMatrix type="matrix" values="0 0 0 0 0.392157 0 0 0 0 0.454902 0 0 0 0 0.545098 0 0 0 0.1 0"/>
<feBlend mode="normal" in2="effect1_backgroundBlur_3006_48643" result="effect2_dropShadow_3006_48643"/>
<feBlend mode="normal" in="SourceGraphic" in2="effect2_dropShadow_3006_48643" result="shape"/>
</filter>
</defs>
</svg>
