<svg width="220" height="111" viewBox="0 0 220 111" fill="none" xmlns="http://www.w3.org/2000/svg">
<g filter="url(#filter0_bd_3006_48653)">
<rect x="32.3379" y="25.9268" width="155.66" height="46.6981" rx="23.349" fill="white" fill-opacity="0.1" shape-rendering="crispEdges"/>
<rect x="31.9487" y="25.5376" width="156.439" height="47.4764" rx="23.7382" stroke="white" stroke-opacity="0.2" stroke-width="0.778301" shape-rendering="crispEdges"/>
</g>
<path d="M91.3396 43.0322H87.9348L87.2817 44.8096H86.4894L89.2196 37.4218H90.0655L92.785 44.8096H91.9927L91.3396 43.0322ZM91.1148 42.4112L89.6372 38.364L88.1596 42.4112H91.1148ZM96.065 44.0815L98.0351 38.9636H98.8274L96.4826 44.8096H95.6368L93.2919 38.9636H94.095L96.065 44.0815ZM99.5006 41.8759C99.5006 41.2763 99.6184 40.7516 99.854 40.3019C100.097 39.8451 100.429 39.4954 100.85 39.2527C101.278 39.0028 101.76 38.8779 102.295 38.8779C102.852 38.8779 103.33 39.0064 103.73 39.2634C104.137 39.5203 104.429 39.8487 104.608 40.2484V38.9636H105.357V44.8096H104.608V43.514C104.422 43.9138 104.126 44.2457 103.719 44.5098C103.319 44.7667 102.841 44.8952 102.284 44.8952C101.756 44.8952 101.278 44.7703 100.85 44.5205C100.429 44.2707 100.097 43.9173 99.854 43.4605C99.6184 43.0037 99.5006 42.4755 99.5006 41.8759ZM104.608 41.8866C104.608 41.4155 104.511 41.0015 104.319 40.6446C104.126 40.2877 103.862 40.0129 103.526 39.8201C103.198 39.6274 102.834 39.531 102.434 39.531C102.02 39.531 101.649 39.6238 101.321 39.8094C100.992 39.995 100.732 40.2663 100.539 40.6232C100.354 40.9729 100.261 41.3905 100.261 41.8759C100.261 42.3541 100.354 42.7752 100.539 43.1393C100.732 43.4962 100.992 43.771 101.321 43.9637C101.649 44.1493 102.02 44.2421 102.434 44.2421C102.834 44.2421 103.198 44.1457 103.526 43.953C103.862 43.7603 104.126 43.4855 104.319 43.1286C104.511 42.7717 104.608 42.3577 104.608 41.8866ZM107.443 37.8608C107.293 37.8608 107.165 37.8072 107.058 37.7002C106.951 37.5931 106.897 37.461 106.897 37.304C106.897 37.147 106.951 37.0185 107.058 36.9185C107.165 36.8115 107.293 36.7579 107.443 36.7579C107.593 36.7579 107.721 36.8115 107.829 36.9185C107.936 37.0185 107.989 37.147 107.989 37.304C107.989 37.461 107.936 37.5931 107.829 37.7002C107.721 37.8072 107.593 37.8608 107.443 37.8608ZM107.818 38.9636V44.8096H107.068V38.9636H107.818ZM110.265 36.8864V44.8096H109.515V36.8864H110.265ZM111.619 41.8759C111.619 41.2763 111.737 40.7516 111.972 40.3019C112.215 39.8451 112.547 39.4954 112.968 39.2527C113.397 39.0028 113.878 38.8779 114.414 38.8779C114.97 38.8779 115.449 39.0064 115.848 39.2634C116.255 39.5203 116.548 39.8487 116.726 40.2484V38.9636H117.476V44.8096H116.726V43.514C116.541 43.9138 116.245 44.2457 115.838 44.5098C115.438 44.7667 114.96 44.8952 114.403 44.8952C113.875 44.8952 113.397 44.7703 112.968 44.5205C112.547 44.2707 112.215 43.9173 111.972 43.4605C111.737 43.0037 111.619 42.4755 111.619 41.8759ZM116.726 41.8866C116.726 41.4155 116.63 41.0015 116.437 40.6446C116.245 40.2877 115.98 40.0129 115.645 39.8201C115.317 39.6274 114.953 39.531 114.553 39.531C114.139 39.531 113.768 39.6238 113.439 39.8094C113.111 39.995 112.85 40.2663 112.658 40.6232C112.472 40.9729 112.379 41.3905 112.379 41.8759C112.379 42.3541 112.472 42.7752 112.658 43.1393C112.85 43.4962 113.111 43.771 113.439 43.9637C113.768 44.1493 114.139 44.2421 114.553 44.2421C114.953 44.2421 115.317 44.1457 115.645 43.953C115.98 43.7603 116.245 43.4855 116.437 43.1286C116.63 42.7717 116.726 42.3577 116.726 41.8866ZM119.926 40.2591C120.118 39.8523 120.415 39.5203 120.814 39.2634C121.221 39.0064 121.699 38.8779 122.249 38.8779C122.784 38.8779 123.263 39.0028 123.684 39.2527C124.105 39.4954 124.433 39.8451 124.669 40.3019C124.912 40.7516 125.033 41.2763 125.033 41.8759C125.033 42.4755 124.912 43.0037 124.669 43.4605C124.433 43.9173 124.101 44.2707 123.673 44.5205C123.252 44.7703 122.777 44.8952 122.249 44.8952C121.692 44.8952 121.21 44.7703 120.804 44.5205C120.404 44.2635 120.111 43.9316 119.926 43.5247V44.8096H119.187V36.8864H119.926V40.2591ZM124.273 41.8759C124.273 41.3905 124.176 40.9729 123.984 40.6232C123.798 40.2663 123.541 39.995 123.213 39.8094C122.884 39.6238 122.513 39.531 122.099 39.531C121.699 39.531 121.332 39.6274 120.996 39.8201C120.668 40.0129 120.407 40.2877 120.215 40.6446C120.022 41.0015 119.926 41.4155 119.926 41.8866C119.926 42.3577 120.022 42.7717 120.215 43.1286C120.407 43.4855 120.668 43.7603 120.996 43.953C121.332 44.1457 121.699 44.2421 122.099 44.2421C122.513 44.2421 122.884 44.1493 123.213 43.9637C123.541 43.771 123.798 43.4962 123.984 43.1393C124.176 42.7752 124.273 42.3541 124.273 41.8759ZM127.161 36.8864V44.8096H126.412V36.8864H127.161ZM134.148 41.5868C134.148 41.8437 134.141 42.04 134.127 42.1757H129.276C129.298 42.6182 129.405 42.9965 129.597 43.3106C129.79 43.6247 130.044 43.8638 130.358 44.028C130.672 44.185 131.014 44.2635 131.386 44.2635C131.871 44.2635 132.278 44.1457 132.606 43.9102C132.942 43.6746 133.163 43.357 133.27 42.9573H134.062C133.92 43.5283 133.613 43.9958 133.141 44.3599C132.678 44.7168 132.092 44.8952 131.386 44.8952C130.836 44.8952 130.343 44.7739 129.908 44.5312C129.473 44.2814 129.13 43.9316 128.88 43.4819C128.637 43.0251 128.516 42.4933 128.516 41.8866C128.516 41.2798 128.637 40.7481 128.88 40.2912C129.123 39.8344 129.462 39.4846 129.897 39.242C130.333 38.9993 130.829 38.8779 131.386 38.8779C131.942 38.8779 132.428 38.9993 132.842 39.242C133.263 39.4846 133.584 39.813 133.805 40.227C134.034 40.6339 134.148 41.0871 134.148 41.5868ZM133.388 41.5654C133.395 41.1299 133.306 40.7588 133.12 40.4518C132.942 40.1449 132.695 39.9129 132.381 39.7559C132.067 39.5989 131.725 39.5203 131.353 39.5203C130.797 39.5203 130.322 39.6988 129.929 40.0557C129.537 40.4126 129.319 40.9158 129.276 41.5654H133.388ZM141.016 44.8952C140.467 44.8952 139.971 44.7739 139.528 44.5312C139.093 44.2814 138.746 43.9316 138.489 43.4819C138.24 43.0251 138.115 42.4933 138.115 41.8866C138.115 41.2798 138.243 40.7516 138.5 40.3019C138.757 39.8451 139.107 39.4954 139.549 39.2527C139.992 39.0028 140.488 38.8779 141.038 38.8779C141.587 38.8779 142.083 39.0028 142.526 39.2527C142.976 39.4954 143.325 39.8451 143.575 40.3019C143.832 40.7516 143.961 41.2798 143.961 41.8866C143.961 42.4862 143.832 43.0144 143.575 43.4712C143.318 43.928 142.965 44.2814 142.515 44.5312C142.066 44.7739 141.566 44.8952 141.016 44.8952ZM141.016 44.2421C141.402 44.2421 141.759 44.1564 142.087 43.9851C142.415 43.8067 142.679 43.5426 142.879 43.1928C143.086 42.8359 143.19 42.4005 143.19 41.8866C143.19 41.3726 143.09 40.9408 142.89 40.591C142.69 40.2341 142.426 39.97 142.098 39.7987C141.769 39.6203 141.412 39.531 141.027 39.531C140.642 39.531 140.285 39.6203 139.956 39.7987C139.628 39.97 139.364 40.2341 139.164 40.591C138.971 40.9408 138.875 41.3726 138.875 41.8866C138.875 42.4005 138.971 42.8359 139.164 43.1928C139.364 43.5426 139.624 43.8067 139.946 43.9851C140.274 44.1564 140.631 44.2421 141.016 44.2421ZM148.068 38.8565C148.767 38.8565 149.338 39.0742 149.781 39.5096C150.224 39.9379 150.445 40.5625 150.445 41.3833V44.8096H149.706V41.469C149.706 40.8337 149.545 40.3483 149.224 40.0129C148.91 39.6774 148.478 39.5096 147.929 39.5096C147.365 39.5096 146.915 39.6881 146.58 40.045C146.244 40.4019 146.076 40.9265 146.076 41.6189V44.8096H145.327V38.9636H146.076V39.9593C146.262 39.6024 146.53 39.3312 146.879 39.1456C147.229 38.9529 147.625 38.8565 148.068 38.8565Z" fill="#E7E7E7"/>
<path d="M92.456 55.2075C92.456 55.6643 92.3459 56.0926 92.1256 56.4923C91.9135 56.892 91.575 57.2143 91.11 57.459C90.6532 57.7037 90.074 57.8261 89.3724 57.8261H87.9407V61.1055H86.2276V52.5644H89.3724C90.0332 52.5644 90.5961 52.6786 91.061 52.907C91.526 53.1354 91.8727 53.4495 92.1011 53.8492C92.3377 54.2489 92.456 54.7017 92.456 55.2075ZM89.299 56.4434C89.7721 56.4434 90.1229 56.3373 90.3513 56.1252C90.5797 55.9049 90.6939 55.599 90.6939 55.2075C90.6939 54.3754 90.229 53.9593 89.299 53.9593H87.9407V56.4434H89.299ZM95.3854 52.0504V61.1055H93.6723V52.0504H95.3854ZM96.6375 57.6915C96.6375 57.0062 96.7721 56.3985 97.0413 55.8682C97.3186 55.338 97.6898 54.9301 98.1548 54.6446C98.6279 54.3591 99.1541 54.2163 99.7333 54.2163C100.239 54.2163 100.68 54.3183 101.055 54.5222C101.438 54.7262 101.744 54.9831 101.973 55.2931V54.3264H103.698V61.1055H101.973V60.1143C101.752 60.4325 101.446 60.6976 101.055 60.9097C100.671 61.1136 100.227 61.2156 99.7211 61.2156C99.15 61.2156 98.6279 61.0688 98.1548 60.7751C97.6898 60.4814 97.3186 60.0694 97.0413 59.5392C96.7721 59.0008 96.6375 58.3849 96.6375 57.6915ZM101.973 57.716C101.973 57.2999 101.891 56.9451 101.728 56.6514C101.565 56.3495 101.344 56.1211 101.067 55.9661C100.79 55.803 100.492 55.7214 100.174 55.7214C99.8557 55.7214 99.562 55.7989 99.2928 55.9539C99.0236 56.1089 98.8033 56.3373 98.632 56.6391C98.4689 56.9328 98.3873 57.2836 98.3873 57.6915C98.3873 58.0994 98.4689 58.4583 98.632 58.7683C98.8033 59.0701 99.0236 59.3026 99.2928 59.4658C99.5701 59.6289 99.8638 59.7105 100.174 59.7105C100.492 59.7105 100.79 59.633 101.067 59.478C101.344 59.3149 101.565 59.0864 101.728 58.7928C101.891 58.4909 101.973 58.132 101.973 57.716ZM111.856 54.3264L107.659 64.3114H105.836L107.304 60.9342L104.588 54.3264H106.509L108.259 59.062L110.033 54.3264H111.856ZM118.645 61.1911C118.049 61.1911 117.511 61.0892 117.029 60.8852C116.556 60.6813 116.181 60.3876 115.904 60.0042C115.626 59.6208 115.484 59.168 115.475 58.6459H117.311C117.335 58.9967 117.458 59.2741 117.678 59.478C117.906 59.682 118.216 59.7839 118.608 59.7839C119.008 59.7839 119.322 59.6901 119.55 59.5025C119.779 59.3067 119.893 59.0538 119.893 58.7438C119.893 58.4909 119.815 58.2829 119.66 58.1198C119.505 57.9566 119.309 57.8302 119.073 57.7404C118.845 57.6425 118.526 57.5365 118.118 57.4223C117.564 57.2591 117.111 57.1 116.76 56.9451C116.418 56.7819 116.12 56.5412 115.867 56.2231C115.622 55.8968 115.5 55.4644 115.5 54.926C115.5 54.4203 115.626 53.9797 115.879 53.6045C116.132 53.2292 116.487 52.9437 116.944 52.7479C117.401 52.544 117.923 52.442 118.51 52.442C119.391 52.442 120.105 52.6582 120.651 53.0905C121.206 53.5147 121.512 54.1103 121.569 54.8771H119.685C119.668 54.5834 119.542 54.3428 119.305 54.1551C119.077 53.9593 118.771 53.8615 118.388 53.8615C118.053 53.8615 117.784 53.9471 117.58 54.1184C117.384 54.2897 117.286 54.5385 117.286 54.8648C117.286 55.0933 117.36 55.285 117.507 55.44C117.662 55.5868 117.849 55.7092 118.07 55.8071C118.298 55.8968 118.616 56.0028 119.024 56.1252C119.579 56.2884 120.031 56.4515 120.382 56.6147C120.733 56.7778 121.035 57.0226 121.288 57.3489C121.541 57.6752 121.667 58.1034 121.667 58.6337C121.667 59.0905 121.549 59.5147 121.312 59.9063C121.076 60.2979 120.729 60.6119 120.272 60.8485C119.815 61.0769 119.273 61.1911 118.645 61.1911ZM128.965 52.5644V53.9471H126.689V61.1055H124.976V53.9471H122.7V52.5644H128.965ZM134.179 61.1911C133.38 61.1911 132.646 61.0035 131.977 60.6282C131.308 60.253 130.777 59.735 130.386 59.0742C129.994 58.4053 129.799 57.6507 129.799 56.8105C129.799 55.9784 129.994 55.2319 130.386 54.5712C130.777 53.9022 131.308 53.3801 131.977 53.0049C132.646 52.6296 133.38 52.442 134.179 52.442C134.987 52.442 135.721 52.6296 136.382 53.0049C137.051 53.3801 137.577 53.9022 137.96 54.5712C138.352 55.2319 138.548 55.9784 138.548 56.8105C138.548 57.6507 138.352 58.4053 137.96 59.0742C137.577 59.735 137.051 60.253 136.382 60.6282C135.713 61.0035 134.979 61.1911 134.179 61.1911ZM134.179 59.6616C134.693 59.6616 135.146 59.5474 135.537 59.3189C135.929 59.0824 136.235 58.7479 136.455 58.3155C136.675 57.8832 136.786 57.3815 136.786 56.8105C136.786 56.2394 136.675 55.7418 136.455 55.3176C136.235 54.8852 135.929 54.5549 135.537 54.3264C135.146 54.098 134.693 53.9838 134.179 53.9838C133.665 53.9838 133.208 54.098 132.809 54.3264C132.417 54.5549 132.111 54.8852 131.891 55.3176C131.671 55.7418 131.561 56.2394 131.561 56.8105C131.561 57.3815 131.671 57.8832 131.891 58.3155C132.111 58.7479 132.417 59.0824 132.809 59.3189C133.208 59.5474 133.665 59.6616 134.179 59.6616ZM144.227 61.1055L142.343 57.7771H141.535V61.1055H139.822V52.5644H143.028C143.689 52.5644 144.252 52.6827 144.717 52.9192C145.182 53.1477 145.528 53.4617 145.757 53.8615C145.993 54.253 146.112 54.6935 146.112 55.183C146.112 55.7459 145.949 56.2557 145.622 56.7126C145.296 57.1612 144.811 57.4712 144.166 57.6425L146.21 61.1055H144.227ZM141.535 56.4923H142.967C143.432 56.4923 143.779 56.3822 144.007 56.1619C144.235 55.9335 144.35 55.6194 144.35 55.2197C144.35 54.8281 144.235 54.5263 144.007 54.3142C143.779 54.0939 143.432 53.9838 142.967 53.9838H141.535V56.4923ZM149.374 53.9471V56.0885H152.25V57.4467H149.374V59.7105H152.617V61.1055H147.661V52.5521H152.617V53.9471H149.374Z" fill="#E7E7E7"/>
<g clip-path="url(#clip0_3006_48653)">
<path d="M60.8884 40.3858C60.6833 40.5951 60.5646 40.9211 60.5646 41.3432V56.3998C60.5646 56.822 60.6833 57.1479 60.8884 57.3572L60.939 57.4032L69.5926 48.9694V48.7703L60.939 40.3364L60.8884 40.3858Z" fill="#E7E7E7"/>
<path d="M73.5202 51.7825L70.6389 48.9699V48.7707L73.5237 45.958L73.5882 45.9946L77.0047 47.8899C77.9796 48.4277 77.9796 49.3128 77.0047 49.8541L73.5882 51.7459L73.5202 51.7825Z" fill="#E7E7E7"/>
<path d="M73.0638 52.2692L70.1144 49.3936L61.4102 57.881C61.734 58.2129 62.2621 58.2529 62.8627 57.921L73.0638 52.2692Z" fill="#E7E7E7"/>
<path d="M73.0638 45.471L62.8627 39.8192C62.2621 39.4907 61.734 39.5307 61.4102 39.8626L70.1144 48.3467L73.0638 45.471Z" fill="#E7E7E7"/>
</g>
<defs>
<filter id="filter0_bd_3006_48653" x="0.427521" y="0.242798" width="219.481" height="110.519" filterUnits="userSpaceOnUse" color-interpolation-filters="sRGB">
<feFlood flood-opacity="0" result="BackgroundImageFix"/>
<feGaussianBlur in="BackgroundImageFix" stdDeviation="6.53565"/>
<feComposite in2="SourceAlpha" operator="in" result="effect1_backgroundBlur_3006_48653"/>
<feColorMatrix in="SourceAlpha" type="matrix" values="0 0 0 0 0 0 0 0 0 0 0 0 0 0 0 0 0 0 127 0" result="hardAlpha"/>
<feOffset dy="6.22641"/>
<feGaussianBlur stdDeviation="15.566"/>
<feComposite in2="hardAlpha" operator="out"/>
<feColorMatrix type="matrix" values="0 0 0 0 0.392157 0 0 0 0 0.454902 0 0 0 0 0.545098 0 0 0 0.1 0"/>
<feBlend mode="normal" in2="effect1_backgroundBlur_3006_48653" result="effect2_dropShadow_3006_48653"/>
<feBlend mode="normal" in="SourceGraphic" in2="effect2_dropShadow_3006_48653" result="shape"/>
</filter>
<clipPath id="clip0_3006_48653">
<rect width="17.59" height="19.8843" fill="white" transform="translate(60.1447 38.9277)"/>
</clipPath>
</defs>
</svg>
