<svg width="173" height="222" viewBox="0 0 173 222" fill="none" xmlns="http://www.w3.org/2000/svg">
<path d="M17.0486 102.964C20.6079 111.073 24.7244 118.84 29.34 126.224" stroke="#05274C" stroke-width="1.75467" stroke-miterlimit="10" stroke-linecap="round"/>
<path d="M14.9404 60.9407C16.3108 70.2711 20.4606 92.9247 35.5156 117.955" stroke="#05274C" stroke-width="1.75467" stroke-miterlimit="10" stroke-linecap="round"/>
<path d="M3.71845 1.17432C0.567943 21.4372 0.796926 42.5792 4.89846 63.8729C6.4452 71.9058 8.4964 79.7141 11.0117 87.2705" stroke="#05274C" stroke-width="1.75467" stroke-miterlimit="10" stroke-linecap="round"/>
<path d="M31.5247 164.053C31.5249 132.172 57.3712 106.327 89.2526 106.327C121.133 106.327 146.978 132.173 146.978 164.054C146.978 195.935 121.133 221.781 89.2521 221.78C57.3707 221.78 31.5246 195.935 31.5247 164.053Z" fill="#EBF5FE"/>
<path d="M36.1951 164.053C36.1952 134.75 59.95 110.996 89.2529 110.996C118.556 110.996 142.31 134.751 142.31 164.054C142.31 193.357 118.555 217.111 89.2525 217.111C59.9496 217.111 36.195 193.356 36.1951 164.053Z" fill="#EBF5FE"/>
<path d="M36.1951 164.053C36.1952 134.75 59.95 110.996 89.2529 110.996C118.556 110.996 142.31 134.751 142.31 164.054C142.31 193.357 118.555 217.111 89.2525 217.111C59.9496 217.111 36.195 193.356 36.1951 164.053Z" stroke="#0E0014" stroke-width="0.877333" stroke-linecap="round" stroke-linejoin="round"/>
<path d="M63.9483 127.809C69.3457 124.033 75.6265 121.434 82.418 120.379" stroke="#3375D9" stroke-width="2.632" stroke-miterlimit="10" stroke-linecap="round"/>
<path d="M58.9863 196.269C55.7691 193.245 53.0064 189.746 50.8078 185.882" stroke="#3375D9" stroke-width="2.632" stroke-miterlimit="10" stroke-linecap="round"/>
<path d="M111.061 202.509C104.625 206.166 97.1829 208.255 89.2526 208.255C80.1433 208.255 71.677 205.499 64.6426 200.776" stroke="#3375D9" stroke-width="2.632" stroke-miterlimit="10" stroke-linecap="round"/>
<path d="M68.9301 168.192L71.1938 155.901L77.3878 155.692L74.5071 172.802L66.1975 173.082L63.9685 165.213L62.0272 173.224L54.0272 173.494L49.9984 156.617L56.1916 156.407L59.248 168.488L60.6428 156.257L66.7748 156.051L68.9301 168.192Z" fill="#0E0014"/>
<path d="M68.9301 168.192L71.1938 155.901L77.3878 155.692L74.5071 172.802L66.1975 173.082L63.9685 165.213L62.0272 173.224L54.0272 173.494L49.9984 156.617L56.1916 156.407L59.248 168.488L60.6428 156.257L66.7748 156.051L68.9301 168.192Z" stroke="#0E0014" stroke-width="0.877333" stroke-miterlimit="10"/>
<path d="M67.0747 165.268L69.3383 152.978L75.5324 152.769L72.6517 169.878L64.342 170.159L62.113 162.289L60.1717 170.3L52.1717 170.571L48.1429 153.693L54.3361 153.484L57.3925 165.564L58.7874 153.334L64.9193 153.127L67.0747 165.268Z" fill="#76A5EB"/>
<path d="M67.0747 165.268L69.3383 152.978L75.5324 152.769L72.6517 169.878L64.342 170.159L62.113 162.289L60.1717 170.3L52.1717 170.571L48.1429 153.693L54.3361 153.484L57.3925 165.564L58.7874 153.334L64.9193 153.127L67.0747 165.268Z" stroke="#0E0014" stroke-width="0.877333" stroke-miterlimit="10"/>
<path d="M79.3909 170.936C77.8772 169.159 77.242 166.949 77.4867 164.302C77.724 161.718 78.7495 159.696 80.563 158.237C82.3765 156.778 85.0499 156.212 88.5853 156.538C90.9628 156.758 92.9166 157.329 94.4471 158.251C95.978 159.175 97.0646 160.328 97.7088 161.711C98.3528 163.095 98.5998 164.603 98.4488 166.236C98.2021 168.903 97.1212 170.961 95.2051 172.41C93.2879 173.86 90.5417 174.42 86.9654 174.09C83.4308 173.764 80.9055 172.712 79.3909 170.936ZM90.6732 168.146C91.3928 167.566 91.8035 166.739 91.902 165.663C91.9961 164.65 91.7421 163.788 91.1409 163.076C90.5386 162.363 89.5658 161.945 88.2226 161.821C86.8786 161.697 85.8679 161.928 85.1884 162.511C84.5094 163.095 84.121 163.903 84.0264 164.937C83.9271 166.012 84.1575 166.899 84.7194 167.596C85.2802 168.295 86.2322 168.706 87.5762 168.83C88.9202 168.954 89.9516 168.726 90.6732 168.146Z" fill="#0E0014"/>
<path d="M79.3909 170.936C77.8772 169.159 77.242 166.949 77.4867 164.302C77.724 161.718 78.7495 159.696 80.563 158.237C82.3765 156.778 85.0499 156.212 88.5853 156.538C90.9628 156.758 92.9166 157.329 94.4471 158.251C95.978 159.175 97.0646 160.328 97.7088 161.711C98.3528 163.095 98.5998 164.603 98.4488 166.236C98.2021 168.903 97.1212 170.961 95.2051 172.41C93.2879 173.86 90.5417 174.42 86.9654 174.09C83.4308 173.764 80.9055 172.712 79.3909 170.936ZM90.6732 168.146C91.3928 167.566 91.8035 166.739 91.902 165.663C91.9961 164.65 91.7421 163.788 91.1409 163.076C90.5386 162.363 89.5658 161.945 88.2226 161.821C86.8786 161.697 85.8679 161.928 85.1884 162.511C84.5094 163.095 84.121 163.903 84.0264 164.937C83.9271 166.012 84.1575 166.899 84.7194 167.596C85.2802 168.295 86.2322 168.706 87.5762 168.83C88.9202 168.954 89.9516 168.726 90.6732 168.146Z" stroke="#0E0014" stroke-width="0.877333" stroke-miterlimit="10"/>
<path d="M77.5354 168.013C76.0217 166.237 75.3866 164.027 75.6312 161.379C75.8685 158.795 76.894 156.773 78.7075 155.314C80.521 153.855 83.1945 153.289 86.7299 153.616C89.1073 153.835 91.0611 154.406 92.5916 155.329C94.1225 156.252 95.2092 157.405 95.8534 158.788C96.4973 160.172 96.7443 161.68 96.5933 163.313C96.3466 165.98 95.2658 168.038 93.3497 169.488C91.4325 170.937 88.6863 171.497 85.1099 171.167C81.5754 170.841 79.05 169.79 77.5354 168.013ZM88.8177 165.223C89.5373 164.643 89.948 163.816 90.0465 162.741C90.1404 161.728 89.8867 160.866 89.2855 160.153C88.6831 159.44 87.7103 159.022 86.3671 158.899C85.0231 158.774 84.0124 159.005 83.3329 159.588C82.654 160.172 82.2655 160.98 82.171 162.014C82.0717 163.089 82.302 163.976 82.8639 164.674C83.4247 165.372 84.3767 165.783 85.7207 165.907C87.0648 166.031 88.0962 165.803 88.8177 165.223Z" fill="#76A5EB"/>
<path d="M77.5354 168.013C76.0217 166.237 75.3866 164.027 75.6312 161.379C75.8685 158.795 76.894 156.773 78.7075 155.314C80.521 153.855 83.1945 153.289 86.7299 153.616C89.1073 153.835 91.0611 154.406 92.5916 155.329C94.1225 156.252 95.2092 157.405 95.8534 158.788C96.4973 160.172 96.7443 161.68 96.5933 163.313C96.3466 165.98 95.2658 168.038 93.3497 169.488C91.4325 170.937 88.6863 171.497 85.1099 171.167C81.5754 170.841 79.05 169.79 77.5354 168.013ZM88.8177 165.223C89.5373 164.643 89.948 163.816 90.0465 162.741C90.1404 161.728 89.8867 160.866 89.2855 160.153C88.6831 159.44 87.7103 159.022 86.3671 158.899C85.0231 158.774 84.0124 159.005 83.3329 159.588C82.654 160.172 82.2655 160.98 82.171 162.014C82.0716 163.089 82.302 163.976 82.8639 164.674C83.4247 165.372 84.3767 165.783 85.7207 165.907C87.0648 166.031 88.0962 165.803 88.8177 165.223Z" stroke="#0E0014" stroke-width="0.877333" stroke-miterlimit="10"/>
<path d="M115.828 173.903L121.206 162.623L127.243 164.03L120.015 179.804L111.918 177.917L111.81 169.739L107.854 176.969L100.059 175.152L100.554 157.808L106.589 159.215L106.402 171.675L110.926 160.226L116.901 161.619L115.828 173.903Z" fill="#0E0014"/>
<path d="M115.828 173.903L121.206 162.623L127.243 164.03L120.015 179.804L111.918 177.917L111.81 169.739L107.854 176.969L100.059 175.152L100.554 157.808L106.589 159.215L106.402 171.675L110.926 160.226L116.901 161.619L115.828 173.903Z" stroke="#0E0014" stroke-width="0.877333" stroke-miterlimit="10"/>
<path d="M113.972 170.98L119.35 159.699L125.387 161.107L118.159 176.881L110.062 174.993L109.954 166.815L105.998 174.046L98.2033 172.229L98.6967 154.884L104.733 156.292L104.545 168.751L109.069 157.303L115.045 158.696L113.972 170.98Z" fill="#76A5EB"/>
<path d="M113.972 170.98L119.35 159.699L125.387 161.107L118.159 176.881L110.062 174.993L109.954 166.815L105.998 174.046L98.2033 172.229L98.6967 154.884L104.733 156.292L104.545 168.751L109.069 157.303L115.045 158.696L113.972 170.98Z" stroke="#0E0014" stroke-width="0.877333" stroke-miterlimit="10"/>
<path d="M138.989 160.911C138.524 162.223 137.582 164.719 136.164 168.401C135.916 168.974 135.744 169.398 135.647 169.671C134.276 172.291 133.177 174.611 132.349 176.63L126.92 174.702C127.551 172.613 128.161 170.119 128.749 167.222L129.179 165.922C130.131 162.867 130.966 160.331 131.682 158.315L138.989 160.911ZM130.388 184.295L123.578 181.876L125.433 176.653L132.243 179.071L130.388 184.295Z" fill="#0E0014"/>
<path d="M138.989 160.911C138.524 162.223 137.582 164.719 136.164 168.401C135.916 168.974 135.744 169.398 135.647 169.671C134.276 172.291 133.177 174.611 132.349 176.63L126.92 174.702C127.551 172.613 128.161 170.119 128.749 167.222L129.179 165.922C130.131 162.867 130.966 160.331 131.682 158.315L138.989 160.911ZM130.388 184.295L123.578 181.876L125.433 176.653L132.243 179.071L130.388 184.295Z" stroke="#0E0014" stroke-width="0.877333" stroke-miterlimit="10"/>
<path d="M137.134 157.988C136.669 159.299 135.727 161.796 134.309 165.477C134.061 166.05 133.889 166.475 133.792 166.747C132.42 169.368 131.321 171.687 130.494 173.707L125.064 171.779C125.696 169.689 126.306 167.196 126.894 164.298L127.324 162.998C128.276 159.944 129.111 157.408 129.826 155.392L137.134 157.988ZM128.532 181.372L121.722 178.953L123.578 173.73L130.387 176.148L128.532 181.372Z" fill="#76A5EB"/>
<path d="M137.134 157.988C136.669 159.299 135.727 161.796 134.309 165.477C134.061 166.05 133.889 166.475 133.792 166.747C132.42 169.368 131.321 171.687 130.494 173.707L125.064 171.779C125.696 169.689 126.306 167.196 126.894 164.298L127.324 162.998C128.276 159.944 129.111 157.408 129.826 155.392L137.134 157.988ZM128.532 181.372L121.722 178.953L123.578 173.73L130.387 176.148L128.532 181.372Z" stroke="#0E0014" stroke-width="0.877333" stroke-miterlimit="10"/>
<path d="M65.5222 190.393C65.5222 187.528 68.864 184.188 71.7285 184.188C68.864 184.188 65.5222 180.845 65.5223 177.98C65.5222 180.845 62.1805 184.188 59.316 184.188C62.1805 184.188 65.5222 187.528 65.5222 190.393Z" fill="white"/>
<path d="M117.546 153.992C117.546 152.628 119.138 151.036 120.502 151.036C119.138 151.036 117.546 149.445 117.546 148.081C117.546 149.445 115.955 151.036 114.59 151.036C115.955 151.036 117.546 152.628 117.546 153.992Z" fill="white"/>
<path d="M101.51 127.768L93.6248 127.074C93.2264 127.039 92.9615 127.476 93.1756 127.814L97.421 134.494C97.5061 134.628 97.5192 134.796 97.4569 134.942L94.36 142.227C94.2038 142.595 94.5372 142.983 94.9241 142.883L102.59 140.911C102.744 140.87 102.907 140.91 103.027 141.013L108.999 146.211C109.301 146.473 109.772 146.275 109.798 145.876L110.29 137.976C110.3 137.818 110.387 137.674 110.523 137.592L117.311 133.52C117.653 133.314 117.612 132.804 117.24 132.657L109.878 129.747C109.731 129.689 109.621 129.561 109.586 129.407L107.809 121.693C107.72 121.303 107.223 121.185 106.968 121.494L101.924 127.596C101.823 127.718 101.668 127.782 101.51 127.768Z" fill="#F9CAB0"/>
<path d="M101.51 127.768L93.6248 127.074C93.2264 127.039 92.9615 127.476 93.1756 127.814L97.421 134.494C97.5061 134.628 97.5192 134.796 97.4569 134.942L94.36 142.227C94.2038 142.595 94.5372 142.983 94.9241 142.883L102.59 140.911C102.744 140.87 102.907 140.91 103.027 141.013L108.999 146.211C109.301 146.473 109.772 146.275 109.798 145.876L110.29 137.976C110.3 137.818 110.387 137.674 110.523 137.592L117.311 133.52C117.653 133.314 117.612 132.804 117.24 132.657L109.878 129.747C109.731 129.689 109.621 129.561 109.586 129.407L107.809 121.693C107.72 121.303 107.223 121.185 106.968 121.494L101.924 127.596C101.823 127.718 101.668 127.782 101.51 127.768Z" fill="#F9CAB0" stroke="#0E0014" stroke-width="0.877333" stroke-linecap="round" stroke-linejoin="round"/>
<path d="M135.311 124.097L127.543 122.574C127.151 122.497 126.84 122.903 127.018 123.262L130.534 130.353C130.605 130.496 130.601 130.664 130.524 130.803L126.675 137.72C126.48 138.069 126.771 138.49 127.167 138.431L134.998 137.279C135.155 137.256 135.313 137.312 135.422 137.428L140.811 143.226C141.083 143.519 141.573 143.372 141.64 142.978L142.964 135.174C142.991 135.017 143.093 134.884 143.237 134.817L150.416 131.484C150.779 131.315 150.791 130.804 150.437 130.618L143.424 126.948C143.283 126.874 143.188 126.736 143.168 126.578L142.217 118.72C142.168 118.323 141.687 118.153 141.401 118.433L135.741 123.968C135.628 124.08 135.467 124.128 135.311 124.097Z" fill="#F9CAB0"/>
<path d="M135.311 124.097L127.543 122.574C127.151 122.497 126.84 122.903 127.018 123.262L130.534 130.353C130.605 130.496 130.601 130.664 130.524 130.803L126.675 137.72C126.48 138.069 126.771 138.49 127.167 138.431L134.998 137.279C135.155 137.256 135.313 137.312 135.422 137.428L140.811 143.226C141.083 143.519 141.573 143.372 141.64 142.978L142.964 135.174C142.991 135.017 143.093 134.884 143.237 134.817L150.416 131.484C150.779 131.315 150.791 130.804 150.437 130.618L143.424 126.948C143.283 126.874 143.188 126.736 143.168 126.578L142.217 118.72C142.168 118.323 141.687 118.153 141.401 118.433L135.741 123.968C135.628 124.08 135.467 124.128 135.311 124.097Z" fill="#F9CAB0" stroke="#0E0014" stroke-width="0.877333" stroke-linecap="round" stroke-linejoin="round"/>
<path d="M158.546 149.291L151.26 146.196C150.892 146.04 150.504 146.374 150.604 146.761L152.58 154.426C152.619 154.58 152.581 154.743 152.477 154.863L147.283 160.836C147.02 161.138 147.218 161.609 147.617 161.634L155.517 162.124C155.676 162.134 155.819 162.221 155.901 162.357L159.977 169.143C160.183 169.485 160.692 169.443 160.839 169.071L163.746 161.709C163.804 161.561 163.932 161.451 164.086 161.416L171.8 159.637C172.189 159.547 172.307 159.049 171.998 158.795L165.894 153.755C165.771 153.654 165.707 153.498 165.721 153.341L166.412 145.455C166.447 145.057 166.01 144.792 165.672 145.006L158.993 149.254C158.859 149.339 158.692 149.353 158.546 149.291Z" fill="#F9CAB0"/>
<path d="M158.546 149.291L151.26 146.196C150.892 146.04 150.504 146.374 150.604 146.761L152.58 154.426C152.619 154.58 152.581 154.743 152.477 154.863L147.283 160.836C147.02 161.138 147.218 161.609 147.617 161.634L155.517 162.124C155.676 162.134 155.819 162.221 155.901 162.357L159.977 169.143C160.183 169.485 160.692 169.443 160.839 169.071L163.746 161.709C163.804 161.561 163.932 161.451 164.086 161.416L171.8 159.637C172.189 159.547 172.307 159.049 171.998 158.795L165.894 153.755C165.771 153.654 165.707 153.498 165.721 153.341L166.412 145.455C166.447 145.057 166.01 144.792 165.672 145.006L158.993 149.254C158.859 149.339 158.692 149.353 158.546 149.291Z" fill="#F9CAB0" stroke="#0E0014" stroke-width="0.877333" stroke-linecap="round" stroke-linejoin="round"/>
</svg>
