<svg width="24" height="25" viewBox="0 0 24 25" fill="none" xmlns="http://www.w3.org/2000/svg">
<path d="M10.65 16.25L15.525 13.125C15.7583 12.975 15.875 12.7667 15.875 12.5C15.875 12.2333 15.7583 12.025 15.525 11.875L10.65 8.75C10.4 8.58333 10.1457 8.57067 9.887 8.712C9.62833 8.85333 9.49933 9.07433 9.5 9.375V15.625C9.5 15.925 9.62933 16.146 9.888 16.288C10.1467 16.43 10.4007 16.4173 10.65 16.25ZM12 22.5C10.6167 22.5 9.31667 22.2373 8.1 21.712C6.88333 21.1867 5.825 20.4743 4.925 19.575C4.025 18.675 3.31267 17.6167 2.788 16.4C2.26333 15.1833 2.00067 13.8833 2 12.5C2 11.1167 2.26267 9.81667 2.788 8.6C3.31333 7.38333 4.02567 6.325 4.925 5.425C5.825 4.525 6.88333 3.81267 8.1 3.288C9.31667 2.76333 10.6167 2.50067 12 2.5C13.3833 2.5 14.6833 2.76267 15.9 3.288C17.1167 3.81333 18.175 4.52567 19.075 5.425C19.975 6.325 20.6877 7.38333 21.213 8.6C21.7383 9.81667 22.0007 11.1167 22 12.5C22 13.8833 21.7373 15.1833 21.212 16.4C20.6867 17.6167 19.9743 18.675 19.075 19.575C18.175 20.475 17.1167 21.1877 15.9 21.713C14.6833 22.2383 13.3833 22.5007 12 22.5ZM12 20.5C14.2333 20.5 16.125 19.725 17.675 18.175C19.225 16.625 20 14.7333 20 12.5C20 10.2667 19.225 8.375 17.675 6.825C16.125 5.275 14.2333 4.5 12 4.5C9.76667 4.5 7.875 5.275 6.325 6.825C4.775 8.375 4 10.2667 4 12.5C4 14.7333 4.775 16.625 6.325 18.175C7.875 19.725 9.76667 20.5 12 20.5Z" fill="white"/>
</svg>
