<svg width="32" height="32" viewBox="0 0 32 32" fill="none" xmlns="http://www.w3.org/2000/svg">
<path fill-rule="evenodd" clip-rule="evenodd" d="M4.79999 7.9999C4.79999 7.11625 5.51633 6.3999 6.39999 6.3999H25.6C26.4836 6.3999 27.2 7.11625 27.2 7.9999C27.2 8.88356 26.4836 9.5999 25.6 9.5999H6.39999C5.51633 9.5999 4.79999 8.88356 4.79999 7.9999Z" fill="#0F172A"/>
<path fill-rule="evenodd" clip-rule="evenodd" d="M4.79999 15.9999C4.79999 15.1162 5.51633 14.3999 6.39999 14.3999H25.6C26.4836 14.3999 27.2 15.1162 27.2 15.9999C27.2 16.8836 26.4836 17.5999 25.6 17.5999H6.39999C5.51633 17.5999 4.79999 16.8836 4.79999 15.9999Z" fill="#0F172A"/>
<path fill-rule="evenodd" clip-rule="evenodd" d="M14.4 23.9999C14.4 23.1162 15.1163 22.3999 16 22.3999H25.6C26.4836 22.3999 27.2 23.1162 27.2 23.9999C27.2 24.8836 26.4836 25.5999 25.6 25.5999H16C15.1163 25.5999 14.4 24.8836 14.4 23.9999Z" fill="#0F172A"/>
</svg>
