<svg width="48" height="48" viewBox="0 0 48 48" fill="none" xmlns="http://www.w3.org/2000/svg">
<path d="M24 30.5C26.7614 30.5 29 28.2614 29 25.5C29 22.7386 26.7614 20.5 24 20.5C21.2386 20.5 19 22.7386 19 25.5C19 28.2614 21.2386 30.5 24 30.5Z" stroke="#0053D0" stroke-width="2" stroke-linecap="round" stroke-linejoin="round"/>
<path d="M32.5 22.5C33.6645 22.499 34.8131 22.7696 35.8547 23.2903C36.8963 23.811 37.8021 24.5674 38.5001 25.4995" stroke="#0053D0" stroke-width="2" stroke-linecap="round" stroke-linejoin="round"/>
<path d="M9.5 25.4997C10.1981 24.5676 11.1039 23.8111 12.1455 23.2904C13.1871 22.7697 14.3358 22.499 15.5004 22.5" stroke="#0053D0" stroke-width="2" stroke-linecap="round" stroke-linejoin="round"/>
<path d="M16.8047 34.9999C17.4616 33.6506 18.4846 32.5133 19.757 31.7176C21.0293 30.9219 22.4997 30.5 24.0004 30.5C25.501 30.5 26.9715 30.9219 28.2438 31.7176C29.5162 32.5132 30.5392 33.6506 31.1961 34.9998" stroke="#0053D0" stroke-width="2" stroke-linecap="round" stroke-linejoin="round"/>
<path d="M15.4992 22.5C14.7403 22.4999 13.997 22.2838 13.3563 21.8771C12.7155 21.4703 12.2037 20.8897 11.8806 20.2029C11.5575 19.5162 11.4364 18.7517 11.5315 17.9987C11.6266 17.2458 11.934 16.5354 12.4177 15.9506C12.9014 15.3657 13.5415 14.9306 14.2633 14.696C14.9851 14.4613 15.7587 14.4369 16.4939 14.6254C17.229 14.814 17.8954 15.2079 18.4151 15.761C18.9348 16.3141 19.2864 17.0036 19.4289 17.7491" stroke="#0053D0" stroke-width="2" stroke-linecap="round" stroke-linejoin="round"/>
<path d="M28.5703 17.7498C28.7127 17.0042 29.0643 16.3146 29.584 15.7613C30.1038 15.2081 30.7702 14.8142 31.5054 14.6255C32.2406 14.4369 33.0144 14.4613 33.7362 14.6959C34.4581 14.9306 35.0983 15.3658 35.5821 15.9507C36.0659 16.5356 36.3733 17.246 36.4684 17.9991C36.5635 18.7522 36.4424 19.5168 36.1192 20.2036C35.796 20.8904 35.2841 21.4711 34.6432 21.8778C34.0024 22.2846 33.259 22.5006 32.4999 22.5007" stroke="#0053D0" stroke-width="2" stroke-linecap="round" stroke-linejoin="round"/>
</svg>
