<svg width="24" height="24" viewBox="0 0 24 24" fill="none" xmlns="http://www.w3.org/2000/svg">
<path d="M0 12C0 18.6274 5.37258 24 12 24C18.6274 24 24 18.6274 24 12C24 5.37258 18.6274 0 12 0C5.37258 0 0 5.37258 0 12Z" fill="white"/>
<path d="M12.0004 6.8999C13.6504 6.8999 13.8754 6.8999 14.5504 6.8999C15.1504 6.8999 15.4504 7.0499 15.6754 7.1249C15.9754 7.2749 16.2004 7.3499 16.4254 7.5749C16.6504 7.7999 16.8004 8.0249 16.8754 8.3249C16.9504 8.5499 17.0254 8.8499 17.1004 9.4499C17.1004 10.1249 17.1004 10.2749 17.1004 11.9999C17.1004 13.7249 17.1004 13.8749 17.1004 14.5499C17.1004 15.1499 16.9504 15.4499 16.8754 15.6749C16.7254 15.9749 16.6504 16.1999 16.4254 16.4249C16.2004 16.6499 15.9754 16.7999 15.6754 16.8749C15.4504 16.9499 15.1504 17.0249 14.5504 17.0999C13.8754 17.0999 13.7254 17.0999 12.0004 17.0999C10.2754 17.0999 10.1254 17.0999 9.45039 17.0999C8.85039 17.0999 8.55039 16.9499 8.32539 16.8749C8.02539 16.7249 7.80039 16.6499 7.57539 16.4249C7.35039 16.1999 7.20039 15.9749 7.12539 15.6749C7.05039 15.4499 6.97539 15.1499 6.90039 14.5499C6.90039 13.8749 6.90039 13.7249 6.90039 11.9999C6.90039 10.2749 6.90039 10.1249 6.90039 9.4499C6.90039 8.8499 7.05039 8.5499 7.12539 8.3249C7.27539 8.0249 7.35039 7.7999 7.57539 7.5749C7.80039 7.3499 8.02539 7.1999 8.32539 7.1249C8.55039 7.0499 8.85039 6.9749 9.45039 6.8999C10.1254 6.8999 10.3504 6.8999 12.0004 6.8999ZM12.0004 5.7749C10.2754 5.7749 10.1254 5.7749 9.45039 5.7749C8.77539 5.7749 8.32539 5.9249 7.95039 6.0749C7.57539 6.2249 7.20039 6.4499 6.82539 6.8249C6.45039 7.1999 6.30039 7.4999 6.07539 7.9499C5.92539 8.3249 5.85039 8.7749 5.77539 9.4499C5.77539 10.1249 5.77539 10.3499 5.77539 11.9999C5.77539 13.7249 5.77539 13.8749 5.77539 14.5499C5.77539 15.2249 5.92539 15.6749 6.07539 16.0499C6.22539 16.4249 6.45039 16.7999 6.82539 17.1749C7.20039 17.5499 7.50039 17.6999 7.95039 17.9249C8.32539 18.0749 8.77539 18.1499 9.45039 18.2249C10.1254 18.2249 10.3504 18.2249 12.0004 18.2249C13.6504 18.2249 13.8754 18.2249 14.5504 18.2249C15.2254 18.2249 15.6754 18.0749 16.0504 17.9249C16.4254 17.7749 16.8004 17.5499 17.1754 17.1749C17.5504 16.7999 17.7004 16.4999 17.9254 16.0499C18.0754 15.6749 18.1504 15.2249 18.2254 14.5499C18.2254 13.8749 18.2254 13.6499 18.2254 11.9999C18.2254 10.3499 18.2254 10.1249 18.2254 9.4499C18.2254 8.7749 18.0754 8.3249 17.9254 7.9499C17.7754 7.5749 17.5504 7.1999 17.1754 6.8249C16.8004 6.4499 16.5004 6.2999 16.0504 6.0749C15.6754 5.9249 15.2254 5.8499 14.5504 5.7749C13.8754 5.7749 13.7254 5.7749 12.0004 5.7749Z" fill="#05274C"/>
<path d="M12.0004 8.7749C10.2004 8.7749 8.77539 10.1999 8.77539 11.9999C8.77539 13.7999 10.2004 15.2249 12.0004 15.2249C13.8004 15.2249 15.2254 13.7999 15.2254 11.9999C15.2254 10.1999 13.8004 8.7749 12.0004 8.7749ZM12.0004 14.0999C10.8754 14.0999 9.90039 13.1999 9.90039 11.9999C9.90039 10.8749 10.8004 9.8999 12.0004 9.8999C13.1254 9.8999 14.1004 10.7999 14.1004 11.9999C14.1004 13.1249 13.1254 14.0999 12.0004 14.0999Z" fill="#05274C"/>
<path d="M15.3004 9.4499C15.7146 9.4499 16.0504 9.11412 16.0504 8.6999C16.0504 8.28569 15.7146 7.9499 15.3004 7.9499C14.8862 7.9499 14.5504 8.28569 14.5504 8.6999C14.5504 9.11412 14.8862 9.4499 15.3004 9.4499Z" fill="#05274C"/>
</svg>
