<svg width="45" height="45" viewBox="0 0 45 45" fill="none" xmlns="http://www.w3.org/2000/svg">
<path d="M22.5 41.25L22.0312 35.625H21.5625C17.125 35.625 13.3594 34.0781 10.2656 30.9844C7.17187 27.8906 5.625 24.125 5.625 19.6875C5.625 15.25 7.17187 11.4844 10.2656 8.39062C13.3594 5.29687 17.125 3.75 21.5625 3.75C23.7812 3.75 25.8519 4.16375 27.7744 4.99125C29.6969 5.81875 31.3844 6.95937 32.8369 8.41313C34.2894 9.86688 35.4294 11.5544 36.2569 13.4756C37.0844 15.3969 37.4988 17.4675 37.5 19.6875C37.5 22.0312 37.1169 24.2812 36.3506 26.4375C35.5844 28.5938 34.5375 30.5937 33.21 32.4375C31.8825 34.2812 30.3044 35.9531 28.4756 37.4531C26.6469 38.9531 24.655 40.2188 22.5 41.25ZM26.25 34.4062C28.4688 32.5312 30.2738 30.3356 31.665 27.8194C33.0563 25.3031 33.7512 22.5925 33.75 19.6875C33.75 16.2812 32.57 13.3988 30.21 11.04C27.85 8.68125 24.9675 7.50125 21.5625 7.5C18.1562 7.5 15.2738 8.68 12.915 11.04C10.5563 13.4 9.37625 16.2825 9.375 19.6875C9.375 23.0938 10.555 25.9763 12.915 28.335C15.275 30.6938 18.1575 31.8738 21.5625 31.875H26.25V34.4062ZM21.5156 29.9531C22.0469 29.9531 22.5 29.7656 22.875 29.3906C23.25 29.0156 23.4375 28.5625 23.4375 28.0312C23.4375 27.5 23.25 27.0469 22.875 26.6719C22.5 26.2969 22.0469 26.1094 21.5156 26.1094C20.9844 26.1094 20.5312 26.2969 20.1562 26.6719C19.7812 27.0469 19.5938 27.5 19.5938 28.0312C19.5938 28.5625 19.7812 29.0156 20.1562 29.3906C20.5312 29.7656 20.9844 29.9531 21.5156 29.9531ZM20.1562 24H22.9688C22.9688 23.0625 23.0625 22.4062 23.25 22.0312C23.4375 21.6562 24.0312 20.9688 25.0312 19.9688C25.5938 19.4062 26.0625 18.7969 26.4375 18.1406C26.8125 17.4844 27 16.7812 27 16.0312C27 14.4375 26.4606 13.2419 25.3819 12.4444C24.3031 11.6469 23.03 11.2488 21.5625 11.25C20.1875 11.25 19.0312 11.6331 18.0937 12.3994C17.1562 13.1656 16.5 14.095 16.125 15.1875L18.75 16.2187C18.9062 15.6875 19.2031 15.1637 19.6406 14.6475C20.0781 14.1312 20.7188 13.8737 21.5625 13.875C22.4062 13.875 23.0387 14.1094 23.46 14.5781C23.8813 15.0469 24.0925 15.5625 24.0938 16.125C24.0938 16.6563 23.9375 17.1331 23.625 17.5556C23.3125 17.9781 22.9375 18.4075 22.5 18.8438C21.4062 19.7812 20.7419 20.5238 20.5069 21.0712C20.2719 21.6187 20.155 22.595 20.1562 24Z" fill="white"/>
</svg>
