<svg width="45" height="45" viewBox="0 0 45 45" fill="none" xmlns="http://www.w3.org/2000/svg">
<path d="M35.625 35.625H9.375V9.375H35.625M35.625 5.625H9.375C8.38044 5.625 7.42661 6.02009 6.72335 6.72335C6.02009 7.42661 5.625 8.38044 5.625 9.375V35.625C5.625 36.6196 6.02009 37.5734 6.72335 38.2766C7.42661 38.9799 8.38044 39.375 9.375 39.375H35.625C36.6196 39.375 37.5734 38.9799 38.2766 38.2766C38.9799 37.5734 39.375 36.6196 39.375 35.625V9.375C39.375 8.38044 38.9799 7.42661 38.2766 6.72335C37.5734 6.02009 36.6196 5.625 35.625 5.625ZM30.9375 30.4688C30.9375 27.6562 25.3125 26.25 22.5 26.25C19.6875 26.25 14.0625 27.6562 14.0625 30.4688V31.875H30.9375M22.5 22.9688C23.6189 22.9688 24.6919 22.5243 25.4831 21.7331C26.2743 20.9419 26.7188 19.8689 26.7188 18.75C26.7188 17.6311 26.2743 16.5581 25.4831 15.7669C24.6919 14.9757 23.6189 14.5312 22.5 14.5312C21.3811 14.5312 20.3081 14.9757 19.5169 15.7669C18.7257 16.5581 18.2812 17.6311 18.2812 18.75C18.2812 19.8689 18.7257 20.9419 19.5169 21.7331C20.3081 22.5243 21.3811 22.9688 22.5 22.9688Z" fill="white"/>
</svg>
